<svg xmlns="http://www.w3.org/2000/svg" width="801" height="774" viewBox="0 0 801 774">
<g>
<path d="M 372.20,708.89 L 372.15,708.85 L 371.81,708.75 L 371.60,708.70 L 370.95,708.58 L 370.23,708.45 L 368.05,708.13 L 366.86,707.96 L 363.97,707.60 L 362.46,707.42 L 359.16,707.05 L 355.82,706.68 L 349.24,706.06 L 347.71,705.93 L 345.05,705.73 L 342.00,705.58 L 341.04,705.56 L 339.38,705.35 L 339.02,705.29 L 338.47,705.15 L 338.00,704.92 L 337.89,704.79 L 336.98,704.46 L 336.43,704.28 L 334.82,703.87 L 333.95,703.67 L 331.89,703.23 L 330.83,703.01 L 328.57,702.60 L 327.44,702.39 L 325.24,702.04 L 324.17,701.87 L 322.28,701.63 L 321.40,701.52 L 320.07,701.43 L 318.99,701.51 L 318.72,701.67 L 318.29,701.69 L 318.00,701.28 L 318.00,701.17 L 317.43,700.81 L 317.06,700.62 L 315.87,700.15 L 315.21,699.90 L 313.57,699.38 L 310.75,698.59 L 309.75,698.34 L 307.15,697.61 L 305.79,697.22 L 302.72,696.30 L 301.17,695.83 L 298.02,694.84 L 293.61,693.40 L 292.25,692.94 L 289.71,692.14 L 288.49,691.76 L 286.40,691.18 L 285.43,690.92 L 284.03,690.61 L 283.73,690.55 L 283.30,690.50 L 282.95,690.53 L 282.73,690.66 L 282.30,690.64 L 281.84,690.22 L 281.81,690.16 L 281.54,689.97 L 281.37,689.86 L 280.84,689.57 L 280.24,689.25 L 278.37,688.39 L 277.34,687.92 L 274.80,686.84 L 270.50,685.09 L 267.21,683.80 L 260.36,680.82 L 256.90,679.27 L 249.78,675.83 L 246.21,674.05 L 238.95,670.23 L 235.32,668.27 L 228.06,664.13 L 224.44,662.03 L 217.28,657.64 L 213.73,655.43 L 206.80,650.87 L 203.38,648.58 L 196.82,643.92 L 187.50,636.90 L 186.14,635.83 L 183.08,633.29 L 181.51,631.97 L 178.14,629.02 L 176.42,627.50 L 172.84,624.25 L 171.03,622.60 L 167.37,619.16 L 163.71,615.70 L 156.66,608.70 L 154.95,606.98 L 151.77,603.67 L 147.43,599.00 L 145.46,596.82 L 141.34,592.01 L 139.27,589.55 L 135.09,584.39 L 133.01,581.80 L 128.98,576.57 L 127.00,573.98 L 123.31,568.96 L 121.52,566.51 L 118.37,561.97 L 117.63,560.88 L 116.28,558.84 L 115.62,557.84 L 114.48,556.02 L 113.93,555.13 L 113.01,553.55 L 112.58,552.80 L 111.92,551.51 L 111.62,550.90 L 111.24,549.92 L 111.00,548.85 L 111.00,548.41 L 111.25,547.59 L 111.42,547.19 L 112.08,546.40 L 112.47,546.00 L 113.63,545.14 L 116.02,543.68 L 116.75,543.27 L 117.99,542.47 L 118.57,542.07 L 119.44,541.35 L 119.82,541.01 L 120.26,540.42 L 120.36,539.78 L 120.16,539.44 L 120.20,539.19 L 120.90,539.44 L 121.08,539.55 L 121.67,539.55 L 121.99,539.51 L 122.83,539.25 L 125.81,537.65 L 126.56,537.13 L 128.41,536.05 L 129.35,535.51 L 131.27,534.55 L 132.20,534.09 L 133.80,533.43 L 135.42,533.00 L 135.46,533.00 L 135.91,533.57 L 136.18,533.94 L 137.02,535.13 L 137.48,535.79 L 138.60,537.43 L 140.47,540.25 L 141.50,541.81 L 143.82,545.20 L 145.01,546.92 L 147.54,550.46 L 148.82,552.23 L 151.40,555.72 L 152.68,557.44 L 155.15,560.67 L 156.36,562.24 L 158.56,565.01 L 159.62,566.32 L 161.40,568.43 L 161.81,568.90 L 162.52,569.69 L 162.86,570.06 L 163.42,570.61 L 163.67,570.86 L 164.05,571.15 L 164.38,571.26 L 164.64,571.11 L 164.85,571.16 L 164.67,571.72 L 164.58,571.86 L 164.90,572.58 L 165.12,573.00 L 166.01,574.21 L 166.51,574.88 L 167.88,576.52 L 168.62,577.39 L 170.41,579.38 L 171.34,580.41 L 173.46,582.66 L 174.55,583.82 L 176.91,586.26 L 179.32,588.74 L 184.54,593.93 L 187.17,596.51 L 192.35,601.42 L 193.61,602.61 L 196.01,604.81 L 197.19,605.88 L 199.36,607.80 L 200.41,608.72 L 202.27,610.28 L 203.15,611.00 L 204.61,612.11 L 205.28,612.61 L 206.27,613.20 L 207.13,613.42 L 207.39,613.26 L 207.70,613.29 L 207.77,613.79 L 207.74,613.90 L 208.17,614.44 L 208.45,614.77 L 209.44,615.69 L 210.00,616.19 L 211.45,617.40 L 212.23,618.04 L 214.05,619.48 L 215.95,620.96 L 220.46,624.27 L 227.50,629.16 L 229.32,630.37 L 233.66,633.06 L 235.91,634.43 L 240.86,637.32 L 245.89,640.22 L 256.25,645.79 L 258.75,647.10 L 263.35,649.43 L 264.46,649.98 L 266.52,650.97 L 267.52,651.45 L 269.33,652.29 L 270.21,652.68 L 271.74,653.34 L 272.46,653.64 L 273.65,654.09 L 274.21,654.28 L 275.02,654.50 L 275.77,654.54 L 276.14,654.39 L 276.53,654.46 L 276.49,655.01 L 276.35,655.24 L 276.47,655.60 L 276.59,655.77 L 277.20,656.02 L 277.57,656.13 L 278.64,656.25 L 280.74,656.27 L 281.08,656.26 L 281.49,656.45 L 281.54,656.93 L 281.50,657.00 L 281.64,657.19 L 281.74,657.30 L 282.14,657.56 L 282.59,657.83 L 284.13,658.52 L 284.98,658.88 L 287.08,659.68 L 288.18,660.09 L 290.57,660.90 L 291.77,661.30 L 294.15,662.03 L 295.31,662.37 L 297.39,662.92 L 298.37,663.16 L 299.86,663.43 L 300.18,663.48 L 300.67,663.50 L 301.12,663.43 L 301.46,663.21 L 301.80,663.18 L 301.69,663.70 L 301.58,663.87 L 302.06,664.33 L 302.41,664.57 L 303.73,665.15 L 304.49,665.45 L 306.54,666.12 L 307.65,666.47 L 310.32,667.21 L 311.72,667.59 L 314.91,668.39 L 316.56,668.80 L 320.15,669.63 L 323.82,670.47 L 331.92,672.14 L 336.02,672.97 L 344.34,674.49 L 346.39,674.85 L 350.38,675.52 L 352.35,675.84 L 356.10,676.40 L 357.94,676.67 L 361.34,677.12 L 362.98,677.33 L 365.92,677.63 L 367.33,677.77 L 369.70,677.91 L 372.50,677.91 L 372.92,677.89 L 373.98,677.91 L 374.54,677.94 L 375.81,678.05 L 377.11,678.17 L 379.89,678.62 L 381.26,678.86 L 383.60,679.43 L 384.12,679.57 L 384.94,679.85 L 385.75,680.26 L 385.97,680.43 L 386.32,681.43 L 386.48,682.05 L 386.71,684.01 L 386.76,684.57 L 386.84,685.88 L 386.87,686.56 L 386.93,688.15 L 386.95,688.98 L 386.98,690.85 L 387.00,694.00 L 387.00,695.12 L 386.98,697.14 L 386.97,698.12 L 386.93,699.84 L 386.90,700.67 L 386.84,702.12 L 386.80,702.81 L 386.71,703.99 L 386.60,705.11 L 386.32,706.59 L 385.75,707.78 L 385.57,707.92 L 384.81,708.19 L 384.37,708.33 L 383.19,708.57 L 381.94,708.80 L 378.85,709.12 L 377.32,709.25 L 374.58,709.28 L 373.97,709.26 L 373.03,709.16 L 372.62,709.10 M 420.06,705.11 L 419.98,704.97 L 419.84,704.45 L 419.77,704.16 L 419.65,703.37 L 419.52,702.52 L 419.33,700.20 L 419.25,698.95 L 419.13,696.08 L 419.08,694.60 L 419.04,691.50 L 419.03,689.95 L 419.06,686.94 L 419.09,685.48 L 419.20,682.88 L 419.27,681.67 L 419.47,679.81 L 419.52,679.40 L 419.65,678.79 L 419.86,678.20 L 419.97,678.02 L 420.92,677.58 L 421.50,677.35 L 423.20,676.85 L 424.13,676.59 L 426.37,676.10 L 430.09,675.43 L 433.57,674.88 L 441.09,673.46 L 442.95,673.09 L 446.58,672.33 L 448.36,671.95 L 451.69,671.18 L 453.29,670.81 L 456.11,670.10 L 457.44,669.75 L 459.56,669.13 L 460.52,668.84 L 461.76,668.36 L 462.00,668.25 L 462.30,668.07 L 462.41,667.85 L 462.27,667.62 L 462.48,667.43 L 463.36,667.59 L 463.58,667.67 L 464.44,667.66 L 464.93,667.64 L 466.22,667.45 L 467.59,667.23 L 470.82,666.45 L 471.61,666.24 L 473.10,665.80 L 473.81,665.58 L 475.00,665.15 L 475.54,664.94 L 476.25,664.57 L 476.58,664.12 L 476.53,664.04 L 476.64,663.87 L 476.73,663.79 L 477.09,663.65 L 478.85,663.38 L 479.22,663.36 L 480.46,663.09 L 481.16,662.91 L 482.99,662.35 L 483.97,662.04 L 486.28,661.23 L 487.49,660.80 L 490.17,659.79 L 491.55,659.26 L 494.51,658.08 L 496.01,657.48 L 499.13,656.17 L 508.61,651.98 L 509.72,651.46 L 511.93,650.47 L 513.01,649.98 L 514.97,649.13 L 515.90,648.72 L 517.40,648.10 L 518.87,647.54 L 519.51,647.34 L 520.24,646.72 L 520.35,645.68 L 520.17,645.35 L 520.11,645.05 L 520.46,645.21 L 520.56,645.29 L 521.05,645.27 L 521.35,645.23 L 522.19,644.97 L 522.65,644.81 L 523.79,644.35 L 524.39,644.09 L 525.77,643.46 L 527.20,642.78 L 530.55,641.05 L 532.27,640.14 L 535.87,638.13 L 537.66,637.11 L 541.07,635.06 L 542.71,634.06 L 545.49,632.23 L 546.12,631.79 L 547.20,631.01 L 547.70,630.64 L 548.47,630.00 L 548.81,629.70 L 549.21,629.23 L 549.35,628.75 L 549.17,628.46 L 549.19,628.19 L 549.74,628.34 L 549.89,628.43 L 550.77,628.16 L 551.29,627.95 L 552.77,627.17 L 553.57,626.72 L 555.46,625.54 L 558.56,623.42 L 560.15,622.29 L 562.83,620.35 L 564.09,619.43 L 566.17,617.91 L 567.14,617.19 L 568.68,616.01 L 569.39,615.46 L 570.47,614.57 L 570.95,614.16 L 571.63,613.51 L 571.92,613.21 L 572.26,612.74 L 572.34,611.73 L 572.16,611.45 L 572.17,611.17 L 572.67,611.29 L 572.82,611.39 L 573.53,611.16 L 573.93,610.99 L 575.04,610.34 L 575.62,609.97 L 576.95,609.02 L 577.64,608.52 L 579.04,607.40 L 579.74,606.84 L 581.05,605.68 L 581.68,605.12 L 582.75,604.06 L 583.23,603.56 L 583.89,602.73 L 584.23,601.88 L 584.15,601.60 L 584.28,601.31 L 584.80,601.37 L 584.87,601.42 L 585.19,601.32 L 585.38,601.24 L 585.89,600.91 L 586.45,600.53 L 588.02,599.21 L 588.86,598.47 L 590.79,596.65 L 591.79,595.70 L 593.85,593.62 L 594.87,592.58 L 596.80,590.52 L 597.72,589.51 L 599.27,587.71 L 599.98,586.87 L 600.89,585.59 L 601.07,585.31 L 601.26,584.90 L 601.28,584.54 L 601.07,584.30 L 601.06,584.12 L 601.62,584.32 L 601.80,584.42 L 602.62,583.99 L 603.09,583.68 L 604.34,582.59 L 605.01,581.99 L 606.52,580.45 L 607.28,579.65 L 608.86,577.89 L 609.64,577.00 L 611.10,575.22 L 611.79,574.35 L 612.94,572.76 L 613.46,572.01 L 614.12,570.84 L 614.35,569.76 L 614.17,569.47 L 614.19,569.19 L 614.73,569.33 L 615.09,569.55 L 615.88,569.38 L 616.27,569.21 L 616.96,568.50 L 617.27,568.11 L 617.60,567.18 L 617.43,565.89 L 617.21,565.53 L 617.19,565.20 L 617.75,565.35 L 617.89,565.43 L 618.35,565.29 L 618.61,565.17 L 619.31,564.66 L 619.68,564.36 L 620.56,563.52 L 621.02,563.06 L 622.06,561.92 L 623.13,560.72 L 625.58,557.62 L 629.42,552.25 L 629.93,551.48 L 630.85,550.24 L 631.30,549.66 L 632.15,548.82 L 632.57,548.45 L 633.44,548.02 L 633.89,547.85 L 634.88,547.84 L 635.40,547.88 L 636.60,548.29 L 637.23,548.55 L 638.74,549.39 L 639.54,549.87 L 641.44,551.15 L 644.84,553.59 L 645.85,554.33 L 647.79,555.63 L 648.72,556.24 L 650.36,557.21 L 651.12,557.64 L 652.28,558.16 L 653.27,558.34 L 653.55,558.16 L 653.81,558.19 L 653.66,558.74 L 653.52,558.97 L 653.74,559.55 L 653.91,559.85 L 654.58,560.42 L 654.95,560.69 L 655.81,561.07 L 657.04,561.23 L 657.19,561.21 L 657.47,561.82 L 657.76,563.35 L 657.79,563.69 L 657.43,564.78 L 657.19,565.38 L 656.33,566.94 L 655.84,567.78 L 654.53,569.77 L 653.82,570.81 L 652.10,573.17 L 651.20,574.39 L 649.12,577.07 L 648.04,578.44 L 645.66,581.36 L 644.44,582.86 L 641.80,585.98 L 640.45,587.57 L 637.60,590.84 L 634.71,594.14 L 628.52,600.94 L 625.38,604.33 L 618.99,610.97 L 615.81,614.22 L 609.62,620.26 L 608.11,621.71 L 605.18,624.42 L 601.00,628.14 L 599.93,629.06 L 597.24,631.27 L 595.82,632.42 L 592.59,634.98 L 590.92,636.28 L 587.34,639.02 L 585.53,640.40 L 581.84,643.17 L 579.99,644.54 L 576.39,647.18 L 574.62,648.47 L 571.32,650.81 L 569.72,651.94 L 566.94,653.83 L 563.59,656.00 L 562.00,656.96 L 558.44,659.18 L 557.58,659.71 L 556.03,660.69 L 554.16,661.90 L 553.38,662.41 L 551.54,663.53 L 550.58,664.11 L 548.40,665.35 L 547.28,665.98 L 544.81,667.31 L 543.54,667.99 L 540.82,669.39 L 538.05,670.82 L 531.97,673.79 L 528.87,675.29 L 522.41,678.28 L 519.17,679.76 L 512.70,682.61 L 509.50,683.99 L 503.40,686.51 L 500.42,687.72 L 495.06,689.74 L 493.78,690.21 L 491.43,691.03 L 488.25,692.05 L 487.08,692.40 L 485.25,693.21 L 484.86,693.40 L 484.34,693.77 L 484.00,694.22 L 484.00,694.47 L 483.74,694.69 L 483.12,694.57 L 483.00,694.50 L 482.02,694.59 L 481.44,694.67 L 479.70,695.03 L 478.76,695.24 L 476.48,695.82 L 472.72,696.88 L 472.06,697.08 L 470.52,697.51 L 469.72,697.74 L 467.93,698.21 L 466.09,698.69 L 461.93,699.71 L 459.81,700.21 L 455.48,701.19 L 449.35,702.48 L 447.45,702.85 L 443.85,703.58 L 442.12,703.93 L 439.13,704.56 L 438.43,704.70 L 437.21,704.97 L 436.63,705.09 L 435.68,705.30 L 435.23,705.40 L 434.58,705.56 L 434.00,705.71 L 433.79,705.78 L 432.97,705.94 L 432.50,706.02 L 431.27,706.20 L 426.81,706.65 L 425.58,706.75 L 423.81,706.81 L 423.02,706.82 L 421.94,706.67 L 421.46,706.56 L 420.81,706.13 L 420.52,705.87 M 382.09,657.84 L 380.80,656.95 L 378.76,655.15 L 377.82,654.24 L 376.45,652.33 L 375.85,651.35 L 375.10,649.25 L 374.63,645.81 L 374.62,644.82 L 374.80,642.97 L 374.92,642.06 L 375.36,640.37 L 375.61,639.55 L 376.28,638.04 L 376.64,637.31 L 377.51,635.98 L 378.43,634.70 L 380.76,632.72 L 381.99,631.84 L 384.78,630.71 L 386.21,630.26 L 389.26,630.04 L 390.79,630.05 L 393.87,630.81 L 394.64,631.06 L 396.13,631.77 L 396.87,632.15 L 398.30,633.13 L 399.01,633.65 L 400.35,634.89 L 402.23,637.09 L 402.79,637.84 L 403.63,639.50 L 404.00,640.35 L 404.46,642.15 L 404.65,643.06 L 404.76,644.92 L 404.76,645.86 L 404.53,647.72 L 404.36,648.65 L 403.79,650.45 L 403.46,651.34 L 402.56,653.01 L 402.08,653.82 L 400.87,655.29 L 398.72,657.20 L 397.56,658.02 L 394.77,659.11 L 393.33,659.55 L 390.28,659.86 L 388.76,659.92 L 385.85,659.45 L 385.15,659.28 L 383.85,658.79 L 383.22,658.53 M 341.14,633.44 L 339.84,633.20 L 336.99,632.63 L 335.53,632.33 L 332.41,631.63 L 329.23,630.92 L 322.46,629.24 L 319.06,628.37 L 312.39,626.53 L 310.76,626.06 L 307.66,625.14 L 303.31,623.78 L 301.65,623.25 L 299.06,622.32 L 297.87,621.87 L 296.17,621.10 L 295.42,620.73 L 294.52,620.07 L 294.00,619.17 L 294.00,618.99 L 294.24,618.13 L 294.40,617.62 L 294.92,616.16 L 295.21,615.36 L 295.97,613.40 L 296.38,612.36 L 297.34,609.98 L 297.84,608.75 L 298.97,606.05 L 299.55,604.67 L 300.79,601.74 L 302.06,598.77 L 304.78,592.53 L 306.15,589.42 L 308.83,583.45 L 309.49,582.01 L 310.73,579.30 L 311.34,577.98 L 312.46,575.60 L 313.00,574.45 L 313.96,572.48 L 314.42,571.55 L 315.17,570.08 L 315.52,569.42 L 316.04,568.54 L 316.50,568.00 L 316.66,568.00 L 317.34,568.12 L 317.73,568.20 L 318.78,568.44 L 322.59,569.51 L 322.86,569.59 L 323.65,569.80 L 324.08,569.92 L 325.15,570.18 L 326.27,570.44 L 329.18,571.09 L 330.71,571.43 L 334.17,572.16 L 335.93,572.52 L 339.59,573.26 L 341.40,573.62 L 344.91,574.30 L 346.61,574.63 L 349.61,575.18 L 351.02,575.43 L 353.17,575.78 L 353.64,575.85 L 354.36,575.94 L 355.07,576.00 L 355.14,576.00 L 355.27,576.55 L 355.33,576.91 L 355.45,578.13 L 355.50,578.83 L 355.61,580.69 L 355.66,581.70 L 355.74,584.15 L 355.78,585.44 L 355.85,588.43 L 355.88,589.99 L 355.93,593.47 L 355.95,595.26 L 355.98,599.18 L 356.00,605.50 L 356.00,635.00 L 352.25,634.89 L 351.73,634.88 L 350.21,634.74 L 349.39,634.66 L 347.44,634.42 L 345.42,634.16 M 339.50,602.94 L 339.50,590.55 L 332.16,588.84 L 331.17,588.61 L 329.48,588.25 L 328.67,588.08 L 327.31,587.85 L 326.67,587.75 L 325.59,587.65 L 325.09,587.62 L 324.27,587.65 L 323.50,587.73 L 322.55,588.30 L 321.70,589.82 L 321.63,590.05 L 321.25,591.17 L 321.03,591.83 L 320.42,593.62 L 320.08,594.58 L 319.31,596.81 L 318.04,600.40 L 317.61,601.62 L 316.89,603.92 L 316.55,605.03 L 316.07,606.93 L 315.86,607.81 L 315.66,609.11 L 315.74,610.14 L 315.80,610.20 L 316.14,610.36 L 316.34,610.45 L 316.93,610.66 L 317.58,610.89 L 319.49,611.45 L 320.52,611.74 L 322.97,612.38 L 324.23,612.71 L 326.91,613.36 L 328.26,613.68 L 330.89,614.28 L 332.17,614.56 L 334.44,615.02 L 335.51,615.23 L 337.13,615.49 L 337.48,615.54 L 338.01,615.59 L 338.50,615.58 L 338.57,615.56 L 338.72,615.30 L 338.78,615.13 L 338.91,614.59 L 339.03,613.98 L 339.22,611.99 L 339.31,610.89 L 339.43,608.03 L 339.47,606.51 M 424.67,634.33 L 424.62,634.29 L 424.53,633.63 L 424.49,633.22 L 424.41,631.89 L 424.37,631.14 L 424.29,629.21 L 424.26,628.18 L 424.20,625.72 L 424.17,624.44 L 424.11,621.54 L 424.09,620.04 L 424.05,616.77 L 424.00,605.96 L 424.00,603.29 L 424.01,598.62 L 424.02,596.39 L 424.06,592.56 L 424.08,590.75 L 424.15,587.68 L 424.18,586.24 L 424.27,583.87 L 424.32,582.76 L 424.44,581.01 L 424.51,580.21 L 424.67,579.02 L 424.75,578.48 L 424.95,577.77 L 425.29,577.18 L 425.46,577.03 L 426.49,576.61 L 427.10,576.38 L 428.83,575.85 L 429.76,575.57 L 431.95,574.99 L 435.54,574.14 L 439.38,573.30 L 446.77,571.35 L 450.42,570.33 L 457.48,568.00 L 460.97,566.79 L 467.73,564.07 L 471.08,562.65 L 477.60,559.51 L 480.83,557.88 L 487.16,554.28 L 490.31,552.42 L 496.49,548.35 L 499.57,546.25 L 505.66,541.68 L 514.75,534.24 L 515.89,533.25 L 517.66,531.59 L 518.46,530.80 L 519.59,529.48 L 520.09,528.85 L 520.67,527.77 L 521.00,526.32 L 521.00,525.89 L 521.35,524.83 L 521.59,524.27 L 522.43,522.93 L 522.92,522.23 L 524.26,520.58 L 526.86,517.74 L 532.71,511.68 L 558.07,536.71 L 583.42,561.74 L 577.03,568.39 L 576.15,569.31 L 574.48,570.95 L 573.67,571.73 L 572.26,573.01 L 571.60,573.58 L 570.61,574.34 L 569.77,574.76 L 569.71,574.74 L 569.24,574.35 L 568.95,574.10 L 568.06,573.28 L 567.57,572.82 L 566.31,571.63 L 565.64,570.99 L 564.05,569.47 L 563.23,568.67 L 561.37,566.87 L 560.41,565.94 L 558.34,563.90 L 551.52,557.16 L 534.14,539.86 L 523.82,548.61 L 521.05,550.96 L 515.52,555.33 L 512.75,557.47 L 507.18,561.43 L 504.38,563.36 L 498.72,566.94 L 495.87,568.69 L 490.06,571.92 L 487.14,573.49 L 481.14,576.39 L 478.11,577.80 L 471.87,580.40 L 468.71,581.67 L 462.18,584.00 L 452.00,587.21 L 440.50,590.54 L 440.22,602.77 L 439.94,615.00 L 442.80,615.00 L 443.22,615.00 L 444.30,614.90 L 444.87,614.84 L 446.20,614.61 L 447.60,614.36 L 451.06,613.53 L 452.89,613.06 L 457.07,611.85 L 459.22,611.20 L 463.90,609.68 L 466.27,608.88 L 471.23,607.12 L 473.72,606.22 L 478.75,604.29 L 481.25,603.31 L 486.13,601.29 L 493.07,598.23 L 494.11,597.75 L 496.59,596.50 L 497.89,595.84 L 500.77,594.31 L 503.72,592.73 L 510.09,589.11 L 511.66,588.20 L 514.72,586.39 L 516.22,585.49 L 519.00,583.78 L 520.34,582.94 L 522.68,581.43 L 525.50,579.49 L 526.33,578.89 L 527.98,577.74 L 528.36,577.48 L 529.01,577.05 L 529.72,576.61 L 529.89,576.51 L 530.54,576.85 L 530.91,577.10 L 531.88,577.98 L 532.39,578.48 L 533.55,579.75 L 534.14,580.42 L 535.35,581.91 L 536.56,583.42 L 538.58,586.42 L 539.01,587.11 L 539.61,588.28 L 540.00,589.56 L 540.00,589.67 L 539.75,590.02 L 539.59,590.22 L 539.04,590.73 L 538.73,591.00 L 537.91,591.66 L 537.46,592.00 L 536.40,592.78 L 535.27,593.58 L 532.43,595.48 L 530.92,596.47 L 527.49,598.62 L 523.96,600.80 L 516.16,605.30 L 514.23,606.39 L 510.48,608.41 L 505.26,611.06 L 500.09,613.56 L 489.51,618.09 L 484.19,620.28 L 473.44,624.14 L 468.07,625.98 L 457.31,629.11 L 441.34,632.93 L 440.03,633.20 L 437.66,633.65 L 436.52,633.87 L 434.48,634.21 L 433.50,634.37 L 431.76,634.62 L 430.94,634.73 L 429.51,634.87 L 428.83,634.92 L 427.69,634.96 L 427.15,634.97 L 426.29,634.90 L 425.89,634.86 L 425.29,634.69 L 425.02,634.60 M 379.00,581.00 L 379.00,558.00 L 375.87,558.00 L 372.74,558.00 L 373.42,551.75 L 373.61,550.03 L 374.07,546.28 L 374.18,545.38 L 374.39,543.79 L 374.66,541.90 L 375.21,538.29 L 390.35,537.69 L 392.70,537.60 L 397.05,537.36 L 399.17,537.23 L 403.13,536.91 L 405.07,536.74 L 408.73,536.32 L 410.53,536.10 L 413.98,535.57 L 417.39,535.01 L 423.95,533.49 L 434.10,530.51 L 437.33,529.45 L 443.51,527.14 L 446.55,525.96 L 452.37,523.39 L 455.24,522.08 L 460.74,519.23 L 463.46,517.77 L 468.70,514.61 L 471.28,513.00 L 476.29,509.51 L 478.76,507.72 L 483.58,503.87 L 485.96,501.90 L 490.63,497.67 L 497.50,490.86 L 500.08,488.15 L 504.96,482.40 L 507.35,479.47 L 511.82,473.32 L 514.01,470.20 L 518.04,463.72 L 519.99,460.44 L 523.54,453.70 L 525.26,450.30 L 528.29,443.36 L 529.75,439.88 L 532.24,432.82 L 533.41,429.28 L 535.32,422.16 L 537.50,411.50 L 537.72,410.12 L 538.16,407.44 L 538.37,406.13 L 538.77,403.78 L 538.95,402.67 L 539.26,400.91 L 539.57,399.25 L 539.68,398.71 L 540.05,397.99 L 540.30,397.68 L 541.38,397.32 L 541.72,397.24 L 542.64,397.14 L 543.14,397.10 L 544.42,397.05 L 545.12,397.03 L 546.85,397.01 L 550.02,397.00 L 560.00,397.00 L 560.00,400.25 L 560.00,401.16 L 559.81,403.60 L 559.68,404.91 L 559.27,407.99 L 559.04,409.60 L 558.45,413.15 L 558.13,414.96 L 557.39,418.78 L 556.62,422.64 L 554.80,430.38 L 554.33,432.26 L 553.37,435.79 L 551.94,440.56 L 551.04,443.35 L 549.02,448.82 L 547.98,451.54 L 545.70,456.88 L 544.53,459.53 L 542.00,464.72 L 540.70,467.30 L 537.92,472.34 L 536.50,474.84 L 533.48,479.72 L 531.94,482.14 L 528.69,486.85 L 527.03,489.18 L 523.55,493.71 L 521.78,495.95 L 518.09,500.30 L 516.21,502.44 L 512.31,506.59 L 510.33,508.64 L 506.22,512.58 L 504.14,514.52 L 499.84,518.25 L 497.67,520.09 L 493.18,523.59 L 490.91,525.31 L 486.24,528.59 L 483.89,530.19 L 479.05,533.23 L 476.61,534.71 L 471.61,537.49 L 463.93,541.38 L 459.56,543.44 L 451.13,546.89 L 446.91,548.52 L 438.37,551.20 L 434.04,552.46 L 424.85,554.54 L 422.49,555.03 L 417.55,555.92 L 409.75,557.15 L 401.00,558.40 L 400.79,569.95 L 400.76,571.54 L 400.69,575.07 L 400.66,576.85 L 400.61,580.46 L 400.58,582.23 L 400.53,585.48 L 400.48,589.50 L 400.46,591.70 L 400.36,596.10 L 400.33,597.12 L 400.28,598.86 L 400.20,600.75 L 400.00,604.00 L 389.50,604.00 L 379.00,604.00 L 379.00,581.00 M 245.30,597.04 L 244.38,596.48 L 242.84,595.14 L 242.12,594.44 L 241.00,592.88 L 240.49,592.07 L 239.78,590.35 L 239.48,589.47 L 239.20,587.66 L 239.11,586.74 L 239.26,584.90 L 239.39,583.98 L 239.98,582.18 L 240.33,581.29 L 241.37,579.60 L 243.42,577.25 L 244.14,576.59 L 245.37,575.63 L 245.97,575.21 L 247.13,574.64 L 247.72,574.40 L 249.01,574.14 L 251.34,574.00 L 252.81,574.00 L 255.52,574.60 L 256.83,574.99 L 259.14,576.32 L 260.22,577.06 L 261.99,579.03 L 263.91,582.60 L 264.36,583.89 L 264.74,586.23 L 264.84,587.37 L 264.49,589.49 L 264.22,590.53 L 263.11,592.56 L 260.54,595.66 L 259.85,596.35 L 258.68,597.35 L 258.11,597.79 L 257.01,598.37 L 256.45,598.61 L 255.18,598.87 L 252.85,599.00 L 251.58,599.00 L 248.82,598.45 L 248.15,598.27 L 246.91,597.83 L 246.31,597.59 M 201.87,568.78 L 201.06,567.93 L 199.59,566.29 L 198.89,565.49 L 197.76,564.09 L 197.25,563.43 L 196.58,562.42 L 196.22,561.53 L 196.24,561.46 L 196.49,561.12 L 196.65,560.92 L 197.16,560.35 L 197.44,560.03 L 198.18,559.25 L 198.57,558.84 L 199.50,557.89 L 200.48,556.89 L 202.90,554.51 L 207.00,550.57 L 207.72,549.89 L 209.50,548.19 L 210.43,547.29 L 212.58,545.23 L 213.69,544.16 L 216.12,541.80 L 217.37,540.59 L 220.01,538.03 L 222.69,535.42 L 228.32,529.91 L 236.55,521.82 L 239.17,519.23 L 244.03,514.51 L 245.20,513.39 L 247.37,511.32 L 248.42,510.31 L 250.33,508.53 L 251.24,507.68 L 252.83,506.23 L 253.57,505.55 L 254.78,504.48 L 255.33,504.01 L 256.10,503.38 L 256.72,503.00 L 256.92,503.00 L 257.72,503.53 L 258.16,503.87 L 259.33,504.94 L 259.94,505.53 L 261.32,506.97 L 262.03,507.71 L 263.47,509.35 L 264.19,510.17 L 265.54,511.81 L 266.19,512.62 L 267.31,514.11 L 267.82,514.81 L 268.53,515.96 L 269.00,517.11 L 269.00,517.33 L 268.64,518.12 L 268.41,518.56 L 267.68,519.67 L 267.27,520.25 L 266.25,521.55 L 264.50,523.55 L 263.88,524.22 L 262.75,525.48 L 262.21,526.10 L 261.32,527.17 L 260.91,527.67 L 260.36,528.42 L 260.00,529.07 L 260.00,529.17 L 260.18,529.51 L 260.29,529.70 L 260.68,530.20 L 261.12,530.74 L 262.56,532.22 L 263.36,533.01 L 265.38,534.90 L 266.45,535.87 L 268.89,538.01 L 271.40,540.19 L 276.96,544.70 L 278.33,545.78 L 281.01,547.82 L 284.73,550.50 L 286.13,551.46 L 288.69,553.34 L 289.90,554.26 L 291.93,555.91 L 292.86,556.69 L 294.13,557.92 L 294.39,558.19 L 294.74,558.63 L 294.95,559.09 L 294.96,559.41 L 294.71,560.43 L 294.55,560.98 L 294.03,562.35 L 293.45,563.78 L 291.80,567.01 L 291.38,567.80 L 290.52,569.28 L 290.10,569.99 L 289.30,571.19 L 288.91,571.74 L 288.25,572.51 L 287.51,573.00 L 287.25,573.00 L 286.16,572.49 L 285.53,572.16 L 283.79,571.06 L 282.85,570.44 L 280.58,568.83 L 279.38,567.97 L 276.68,565.93 L 275.29,564.87 L 272.29,562.50 L 270.75,561.28 L 267.55,558.66 L 257.76,550.29 L 246.03,539.88 L 227.63,557.44 L 225.11,559.85 L 220.44,564.26 L 219.32,565.31 L 217.25,567.24 L 216.24,568.17 L 214.43,569.84 L 213.57,570.64 L 212.08,571.99 L 211.37,572.62 L 210.25,573.61 L 209.74,574.06 L 209.04,574.64 L 208.52,575.00 L 208.42,575.00 L 207.78,574.51 L 207.39,574.19 L 206.27,573.17 L 205.67,572.61 L 204.23,571.20 L 203.49,570.45 M 587.25,533.39 L 586.53,532.76 L 585.21,531.51 L 584.58,530.90 L 583.54,529.78 L 583.07,529.25 L 582.41,528.40 L 582.00,527.54 L 582.00,527.36 L 582.39,526.44 L 582.65,525.89 L 583.47,524.38 L 583.92,523.57 L 585.06,521.67 L 587.01,518.59 L 587.69,517.53 L 589.19,515.12 L 589.95,513.89 L 591.45,511.35 L 592.19,510.09 L 593.52,507.73 L 595.12,504.71 L 595.55,503.86 L 596.36,502.27 L 596.75,501.51 L 597.43,500.21 L 597.74,499.61 L 598.21,498.75 L 598.60,498.10 L 598.66,498.03 L 599.32,498.19 L 599.72,498.31 L 600.90,498.79 L 601.53,499.05 L 603.05,499.75 L 603.83,500.12 L 605.50,500.94 L 607.16,501.77 L 610.14,503.42 L 610.79,503.80 L 611.77,504.44 L 612.56,505.11 L 612.74,505.38 L 612.84,506.47 L 612.63,508.34 L 612.59,508.51 L 612.31,509.13 L 612.14,509.48 L 611.64,510.41 L 611.37,510.91 L 610.68,512.10 L 610.31,512.73 L 609.47,514.14 L 608.59,515.59 L 606.49,518.94 L 605.41,520.65 L 603.10,524.20 L 601.95,525.97 L 599.70,529.34 L 598.60,530.96 L 596.67,533.75 L 596.21,534.39 L 595.41,535.49 L 595.03,536.01 L 594.40,536.82 L 594.11,537.19 L 593.67,537.68 L 593.28,537.98 L 593.18,537.97 L 592.57,537.61 L 592.21,537.37 L 591.19,536.62 L 590.64,536.20 L 589.35,535.16 L 588.68,534.61 M 181.76,533.25 L 179.87,530.42 L 176.04,524.38 L 175.11,522.88 L 173.32,519.95 L 172.44,518.51 L 170.84,515.79 L 170.06,514.46 L 168.71,512.07 L 168.07,510.93 L 167.04,509.00 L 166.58,508.10 L 165.95,506.76 L 165.56,505.54 L 165.55,505.19 L 165.84,504.49 L 166.04,504.14 L 166.81,503.41 L 167.25,503.04 L 168.55,502.23 L 171.14,500.86 L 172.26,500.32 L 174.08,499.45 L 174.94,499.05 L 176.33,498.51 L 176.99,498.29 L 178.09,498.15 L 178.61,498.14 L 179.55,498.47 L 180.01,498.70 L 180.91,499.56 L 181.37,500.07 L 182.38,501.53 L 182.91,502.35 L 184.15,504.48 L 186.43,508.50 L 187.29,510.01 L 189.03,513.07 L 189.89,514.58 L 191.50,517.39 L 192.27,518.73 L 193.57,520.96 L 193.87,521.47 L 194.37,522.32 L 194.96,523.31 L 197.26,527.11 L 192.14,532.06 L 191.43,532.74 L 190.04,533.98 L 189.35,534.57 L 188.11,535.55 L 187.52,536.00 L 186.57,536.61 L 185.64,537.00 L 185.45,537.00 L 184.91,536.70 L 184.62,536.51 L 183.94,535.90 L 183.23,535.22 M 662.51,527.69 L 660.83,526.67 L 657.77,524.70 L 656.31,523.75 L 653.89,522.03 L 653.34,521.63 L 652.39,520.90 L 651.95,520.55 L 651.24,519.94 L 650.92,519.66 L 650.49,519.20 L 650.18,518.70 L 650.13,518.46 L 650.38,517.34 L 650.55,516.68 L 651.17,514.91 L 651.52,513.96 L 652.43,511.76 L 654.02,508.23 L 655.96,504.19 L 659.56,495.85 L 660.41,493.79 L 661.99,489.82 L 662.75,487.87 L 664.09,484.23 L 664.72,482.46 L 665.76,479.30 L 666.24,477.79 L 666.93,475.27 L 667.23,474.10 L 667.51,472.38 L 667.56,472.01 L 667.56,471.44 L 667.42,470.87 L 667.22,470.55 L 667.18,470.21 L 667.64,470.28 L 667.78,470.36 L 668.16,469.92 L 668.36,469.62 L 668.84,468.55 L 669.08,467.96 L 669.60,466.47 L 669.85,465.69 L 670.34,463.98 L 670.82,462.26 L 671.48,459.02 L 671.60,458.30 L 671.70,457.16 L 671.57,456.11 L 671.41,455.85 L 671.44,455.35 L 671.96,454.84 L 672.07,454.80 L 672.36,454.34 L 672.51,454.06 L 672.86,453.14 L 673.04,452.63 L 673.45,451.29 L 673.65,450.57 L 674.10,448.86 L 674.33,447.95 L 674.82,445.90 L 675.07,444.83 L 675.58,442.48 L 677.14,434.50 L 677.21,434.16 L 677.35,433.21 L 677.43,432.70 L 677.60,431.47 L 677.78,430.17 L 678.19,426.91 L 678.39,425.21 L 678.81,421.45 L 679.41,415.70 L 679.60,413.80 L 679.99,410.29 L 680.19,408.60 L 680.57,405.75 L 680.66,405.09 L 680.84,403.96 L 680.92,403.43 L 681.08,402.57 L 681.16,402.18 L 681.29,401.63 L 681.46,401.21 L 681.52,401.14 L 681.96,401.03 L 682.22,400.97 L 683.00,400.88 L 683.43,400.84 L 684.51,400.78 L 685.08,400.75 L 686.40,400.72 L 687.77,400.69 L 691.05,400.70 L 692.74,400.71 L 696.34,400.81 L 698.15,400.86 L 701.67,401.02 L 703.39,401.11 L 706.44,401.32 L 707.86,401.44 L 710.03,401.70 L 710.49,401.77 L 711.19,401.91 L 711.84,402.13 L 712.24,402.38 L 712.75,403.00 L 712.97,403.38 L 713.11,404.68 L 713.13,405.07 L 713.09,406.08 L 713.06,406.63 L 712.94,408.01 L 712.87,408.75 L 712.67,410.57 L 712.28,413.86 L 711.53,419.98 L 709.83,431.47 L 708.95,437.11 L 706.94,447.79 L 705.89,453.04 L 703.54,463.08 L 699.58,477.64 L 698.95,479.72 L 697.75,483.70 L 697.16,485.63 L 696.10,489.02 L 695.85,489.82 L 695.41,491.22 L 695.19,491.90 L 694.83,493.03 L 694.65,493.55 L 694.38,494.35 L 694.09,495.14 L 693.96,495.46 L 693.47,496.73 L 693.19,497.44 L 692.48,499.30 L 692.11,500.29 L 691.27,502.51 L 689.96,506.00 L 688.76,509.23 L 685.93,515.99 L 685.21,517.65 L 683.76,520.86 L 683.04,522.43 L 681.64,525.35 L 680.95,526.76 L 679.67,529.23 L 679.06,530.40 L 677.98,532.28 L 677.47,533.13 L 676.65,534.27 L 675.82,534.97 L 675.73,534.97 L 675.31,534.82 L 675.06,534.72 L 674.36,534.39 L 673.98,534.20 L 673.03,533.71 L 672.53,533.45 L 671.36,532.82 L 670.16,532.16 L 667.27,530.51 L 665.77,529.64 M 554.50,504.75 L 547.98,498.50 L 553.61,490.00 L 555.62,486.95 L 559.33,480.63 L 561.13,477.42 L 564.43,470.71 L 566.03,467.30 L 568.98,460.11 L 573.04,448.69 L 577.50,434.88 L 581.50,435.48 L 582.60,435.65 L 584.52,435.97 L 585.44,436.13 L 587.01,436.46 L 587.75,436.63 L 589.00,436.97 L 589.59,437.14 L 590.55,437.51 L 591.44,437.89 L 592.44,438.77 L 593.00,440.36 L 593.00,440.81 L 592.75,442.33 L 592.59,443.18 L 592.05,445.39 L 591.75,446.56 L 590.98,449.30 L 590.57,450.71 L 589.62,453.80 L 588.64,456.94 L 586.35,463.58 L 585.77,465.21 L 584.60,468.35 L 582.87,472.71 L 582.17,474.38 L 580.43,478.18 L 579.52,480.14 L 577.45,484.32 L 575.34,488.53 L 570.80,496.85 L 569.70,498.83 L 567.61,502.40 L 566.60,504.10 L 564.83,506.89 L 564.42,507.53 L 563.67,508.61 L 563.31,509.11 L 562.70,509.90 L 562.41,510.26 L 561.96,510.72 L 561.46,511.00 L 561.40,511.00 L 560.77,510.51 L 560.39,510.19 L 559.23,509.16 L 558.60,508.60 L 557.07,507.18 L 556.26,506.43 M 89.04,508.54 L 88.76,508.21 L 88.11,507.10 L 87.78,506.49 L 87.03,504.86 L 86.65,503.99 L 85.82,501.90 L 85.40,500.80 L 84.50,498.29 L 84.04,496.99 L 83.09,494.14 L 82.61,492.67 L 81.62,489.51 L 80.62,486.28 L 78.58,479.16 L 77.56,475.53 L 75.57,467.93 L 74.59,464.11 L 72.77,456.46 L 71.89,452.68 L 70.37,445.43 L 70.02,443.67 L 69.38,440.29 L 68.56,435.50 L 68.01,432.01 L 67.10,424.79 L 66.90,423.01 L 66.56,419.55 L 66.39,417.86 L 66.15,414.68 L 66.03,413.13 L 65.89,410.35 L 65.83,409.03 L 65.80,406.79 L 65.80,405.75 L 65.90,404.19 L 66.19,402.75 L 66.38,402.37 L 67.10,401.83 L 67.34,401.71 L 67.98,401.52 L 68.33,401.43 L 69.27,401.30 L 69.79,401.24 L 71.11,401.15 L 71.82,401.11 L 73.58,401.06 L 74.53,401.04 L 76.81,401.01 L 80.91,401.00 L 82.15,401.00 L 84.36,401.02 L 85.42,401.03 L 87.30,401.07 L 88.20,401.09 L 89.76,401.16 L 90.51,401.20 L 91.77,401.29 L 92.36,401.34 L 93.34,401.46 L 93.80,401.53 L 94.51,401.68 L 95.73,402.25 L 95.79,402.34 L 95.95,402.74 L 96.03,402.98 L 96.21,403.66 L 96.39,404.40 L 96.80,406.57 L 97.00,407.75 L 97.42,410.57 L 98.01,415.21 L 98.19,416.82 L 98.57,419.72 L 98.77,421.10 L 99.15,423.35 L 99.34,424.37 L 99.67,425.72 L 99.75,425.99 L 99.89,426.31 L 100.06,426.46 L 100.27,426.33 L 100.45,426.68 L 100.33,427.85 L 100.27,428.09 L 100.26,428.99 L 100.27,429.50 L 100.40,430.88 L 100.48,431.62 L 100.73,433.39 L 100.87,434.32 L 101.23,436.42 L 101.61,438.59 L 102.61,443.58 L 103.14,446.12 L 104.33,451.41 L 104.94,454.04 L 106.18,459.02 L 106.48,460.22 L 107.08,462.45 L 107.37,463.53 L 107.94,465.48 L 108.21,466.41 L 108.72,467.99 L 108.96,468.73 L 109.40,469.87 L 109.61,470.38 L 109.95,471.01 L 110.35,471.28 L 110.62,471.12 L 110.84,471.17 L 110.66,471.74 L 110.62,471.81 L 110.61,472.16 L 110.61,472.37 L 110.70,472.96 L 110.81,473.62 L 111.29,475.53 L 111.56,476.57 L 112.32,479.07 L 113.69,483.19 L 114.20,484.62 L 115.07,487.36 L 115.48,488.68 L 116.11,491.01 L 116.39,492.10 L 116.70,493.76 L 116.76,494.12 L 116.80,494.67 L 116.75,495.21 L 116.67,495.41 L 115.98,496.08 L 115.55,496.44 L 114.25,497.37 L 113.54,497.86 L 111.78,498.98 L 110.85,499.56 L 108.74,500.79 L 106.57,502.05 L 101.75,504.59 L 94.82,507.87 L 93.86,508.28 L 92.42,508.82 L 91.77,509.05 L 90.83,509.23 L 90.40,509.28 L 89.78,509.13 L 89.50,509.01 M 210.59,500.75 L 209.85,499.62 L 208.12,496.78 L 207.23,495.30 L 205.38,492.06 L 204.45,490.43 L 202.68,487.19 L 200.38,482.75 L 199.87,481.71 L 198.98,479.95 L 198.55,479.12 L 197.81,477.73 L 197.45,477.08 L 196.83,476.02 L 196.52,475.53 L 195.99,474.77 L 195.47,474.06 L 194.56,473.36 L 193.14,473.00 L 192.79,473.00 L 191.36,473.22 L 190.55,473.36 L 188.36,473.83 L 187.19,474.09 L 184.46,474.74 L 183.04,475.09 L 179.97,475.87 L 176.86,476.68 L 170.53,478.47 L 169.01,478.91 L 166.21,479.76 L 162.59,480.95 L 160.97,481.51 L 157.93,482.40 L 157.24,482.58 L 156.12,482.84 L 155.00,483.00 L 154.74,483.00 L 154.12,482.42 L 153.80,482.03 L 153.09,480.74 L 152.72,480.02 L 151.95,478.10 L 151.56,477.08 L 150.74,474.62 L 150.33,473.34 L 149.50,470.42 L 149.09,468.92 L 148.27,465.62 L 147.87,463.94 L 147.09,460.35 L 146.00,454.72 L 145.74,453.30 L 145.22,449.83 L 144.97,448.02 L 144.47,443.98 L 143.99,439.87 L 143.20,431.26 L 143.02,429.18 L 142.75,425.31 L 142.62,423.45 L 142.47,420.24 L 142.44,419.49 L 142.41,418.18 L 142.40,417.55 L 142.41,416.51 L 142.42,416.03 L 142.47,415.29 L 142.61,414.58 L 142.68,414.39 L 143.08,413.99 L 143.32,413.80 L 143.99,413.42 L 146.57,412.55 L 147.23,412.43 L 148.46,411.94 L 149.08,411.65 L 150.36,410.72 L 151.02,410.19 L 152.50,408.70 L 155.11,405.70 L 155.82,404.85 L 157.17,403.22 L 157.83,402.43 L 158.99,401.04 L 159.54,400.38 L 160.38,399.39 L 161.14,398.52 L 161.20,398.46 L 161.67,398.33 L 161.96,398.27 L 162.84,398.15 L 163.33,398.09 L 164.56,397.98 L 165.22,397.93 L 166.75,397.82 L 168.34,397.72 L 172.17,397.55 L 174.15,397.47 L 178.39,397.35 L 180.52,397.30 L 184.72,397.24 L 186.76,397.23 L 190.44,397.24 L 191.31,397.25 L 192.86,397.29 L 193.61,397.31 L 194.87,397.37 L 195.46,397.40 L 196.37,397.49 L 197.29,397.64 L 197.68,397.75 L 198.22,398.20 L 198.45,398.48 L 198.72,399.55 L 198.77,399.87 L 198.84,400.69 L 198.86,401.14 L 198.88,402.24 L 198.88,402.83 L 198.86,404.26 L 198.79,406.81 L 198.50,415.47 L 186.81,415.14 L 185.37,415.10 L 182.99,415.05 L 181.87,415.02 L 180.02,415.01 L 179.15,415.02 L 177.71,415.08 L 177.03,415.12 L 175.86,415.28 L 174.74,415.46 L 172.76,416.19 L 172.24,416.42 L 171.10,416.98 L 169.12,418.02 L 167.93,418.65 L 166.00,419.70 L 165.10,420.20 L 163.69,421.10 L 163.04,421.55 L 162.07,422.46 L 161.64,422.92 L 161.06,423.97 L 160.81,424.53 L 160.54,425.88 L 160.44,426.60 L 160.43,428.39 L 160.45,429.35 L 160.63,431.73 L 161.04,436.11 L 161.34,439.24 L 162.16,446.06 L 162.36,447.68 L 162.77,450.58 L 163.32,454.00 L 163.57,455.37 L 164.01,457.33 L 164.23,458.21 L 164.69,459.36 L 164.94,459.85 L 165.53,460.41 L 166.69,460.81 L 166.84,460.83 L 167.47,460.80 L 167.83,460.77 L 168.86,460.65 L 169.41,460.57 L 170.78,460.37 L 171.50,460.25 L 173.15,459.97 L 174.87,459.67 L 178.95,458.89 L 185.63,457.52 L 187.93,457.02 L 192.29,456.14 L 194.39,455.72 L 198.03,455.06 L 198.87,454.91 L 200.36,454.66 L 201.06,454.55 L 202.23,454.38 L 202.77,454.30 L 203.57,454.22 L 204.29,454.21 L 204.61,454.25 L 205.26,454.68 L 205.59,454.95 L 206.28,455.82 L 206.63,456.31 L 207.34,457.61 L 208.44,460.02 L 209.40,462.39 L 211.79,467.60 L 213.04,470.24 L 215.81,475.59 L 217.21,478.23 L 220.06,483.18 L 220.76,484.37 L 222.14,486.57 L 224.11,489.57 L 224.78,490.54 L 226.01,492.40 L 226.59,493.30 L 227.56,494.89 L 228.01,495.63 L 228.61,496.76 L 229.00,497.75 L 229.00,497.94 L 228.56,498.66 L 228.28,499.07 L 227.39,500.13 L 226.90,500.69 L 225.70,501.95 L 225.07,502.60 L 223.71,503.92 L 223.03,504.57 L 221.66,505.81 L 220.98,506.40 L 219.74,507.42 L 219.15,507.89 L 218.19,508.55 L 217.23,508.98 L 217.05,508.98 L 216.31,508.34 L 215.89,507.92 L 214.75,506.57 L 214.15,505.82 L 212.77,503.95 L 212.07,502.97 M 616.25,478.02 L 615.39,477.62 L 613.82,476.82 L 613.08,476.43 L 611.84,475.71 L 611.27,475.37 L 610.49,474.81 L 610.00,474.24 L 610.00,474.12 L 610.11,473.51 L 610.19,473.16 L 610.42,472.17 L 611.44,468.43 L 611.73,467.46 L 612.29,465.23 L 612.57,464.08 L 613.12,461.54 L 613.66,458.94 L 614.64,453.12 L 615.11,450.16 L 615.87,444.08 L 616.66,435.33 L 617.29,425.16 L 611.49,419.08 L 605.70,413.00 L 593.31,413.00 L 580.92,413.00 L 581.21,405.25 L 581.50,397.50 L 595.00,397.20 L 596.18,397.18 L 598.33,397.13 L 599.37,397.11 L 601.26,397.08 L 603.08,397.06 L 606.04,397.09 L 607.43,397.13 L 609.66,397.33 L 610.71,397.46 L 612.42,397.90 L 613.24,398.15 L 614.64,398.88 L 615.32,399.29 L 616.60,400.38 L 617.25,400.97 L 618.63,402.48 L 621.03,405.29 L 621.67,406.05 L 622.78,407.35 L 623.32,407.96 L 624.27,409.00 L 625.18,409.97 L 626.65,411.26 L 627.36,411.82 L 628.67,412.47 L 630.79,413.00 L 634.50,413.50 L 634.81,423.50 L 634.90,426.65 L 634.73,433.24 L 634.59,436.58 L 633.94,443.41 L 633.56,446.84 L 632.47,453.75 L 630.34,464.00 L 629.96,465.56 L 629.26,468.31 L 628.92,469.63 L 628.29,471.92 L 627.98,473.01 L 627.41,474.86 L 627.13,475.74 L 626.60,477.18 L 626.34,477.85 L 625.85,478.91 L 625.61,479.39 L 625.14,480.09 L 624.91,480.39 L 624.46,480.76 L 623.80,480.95 L 623.62,480.95 L 622.80,480.71 L 622.33,480.56 L 621.05,480.07 L 620.36,479.81 L 618.78,479.14 L 617.97,478.79 M 225.06,429.12 L 224.35,428.92 L 223.30,428.19 L 223.06,427.94 L 222.62,427.24 L 222.41,426.84 L 222.02,425.76 L 221.83,425.17 L 221.44,423.61 L 221.25,422.76 L 220.83,420.62 L 220.62,419.47 L 220.15,416.64 L 219.34,411.53 L 219.06,409.76 L 218.60,405.73 L 218.39,403.64 L 218.06,399.08 L 217.91,396.74 L 217.72,391.77 L 217.60,384.00 L 217.60,378.40 L 218.21,367.57 L 218.62,362.21 L 220.07,351.84 L 220.90,346.72 L 223.19,336.79 L 224.45,331.88 L 227.60,322.37 L 229.29,317.66 L 233.30,308.54 L 235.42,304.02 L 240.32,295.26 L 242.87,290.92 L 248.65,282.48 L 258.33,270.17 L 259.18,269.18 L 261.25,266.93 L 262.34,265.77 L 264.80,263.27 L 267.33,260.72 L 273.03,255.35 L 275.90,252.70 L 281.52,247.81 L 282.87,246.67 L 285.39,244.62 L 288.77,242.04 L 291.44,240.11 L 297.19,236.43 L 300.12,234.63 L 306.31,231.23 L 309.44,229.57 L 315.96,226.50 L 319.25,225.01 L 325.99,222.30 L 329.38,220.99 L 336.25,218.69 L 339.69,217.59 L 346.59,215.72 L 350.02,214.85 L 356.84,213.46 L 366.85,211.97 L 368.80,211.76 L 373.27,211.45 L 375.58,211.32 L 380.59,211.17 L 385.70,211.06 L 396.54,211.28 L 399.23,211.37 L 404.47,211.66 L 407.05,211.81 L 411.90,212.22 L 414.25,212.44 L 418.48,212.97 L 423.87,213.89 L 427.53,214.67 L 434.55,216.46 L 438.01,217.40 L 444.69,219.53 L 448.01,220.65 L 454.46,223.17 L 457.67,224.49 L 463.99,227.45 L 467.14,228.99 L 473.44,232.44 L 476.59,234.23 L 482.95,238.21 L 486.14,240.27 L 492.67,244.84 L 502.75,252.40 L 505.19,254.31 L 511.56,247.40 L 512.43,246.45 L 514.03,244.63 L 514.79,243.75 L 516.06,242.18 L 516.64,241.45 L 517.44,240.33 L 517.96,239.33 L 517.96,239.23 L 517.79,238.91 L 517.68,238.73 L 517.30,238.24 L 516.86,237.71 L 515.44,236.24 L 514.65,235.45 L 512.66,233.57 L 511.60,232.60 L 509.21,230.46 L 506.74,228.29 L 501.36,223.84 L 500.03,222.76 L 497.49,220.78 L 494.00,218.21 L 493.11,217.59 L 491.41,216.39 L 490.59,215.81 L 489.17,214.79 L 488.50,214.31 L 487.51,213.58 L 486.67,212.95 L 486.53,212.83 L 486.61,212.03 L 486.70,211.55 L 487.16,210.20 L 487.43,209.48 L 488.17,207.79 L 488.56,206.93 L 489.47,205.11 L 489.94,204.21 L 490.90,202.47 L 491.39,201.64 L 492.31,200.20 L 492.75,199.54 L 493.51,198.60 L 494.36,198.00 L 494.59,198.00 L 495.46,198.38 L 495.96,198.63 L 497.34,199.48 L 498.08,199.96 L 499.90,201.23 L 500.86,201.91 L 503.06,203.55 L 504.20,204.41 L 506.72,206.38 L 508.01,207.40 L 510.79,209.65 L 512.21,210.81 L 515.18,213.29 L 519.79,217.23 L 521.21,218.46 L 523.86,220.66 L 525.13,221.71 L 527.32,223.43 L 527.83,223.82 L 528.71,224.47 L 529.13,224.77 L 529.81,225.24 L 530.12,225.45 L 530.58,225.70 L 530.96,225.82 L 531.06,225.78 L 531.69,225.27 L 532.08,224.95 L 533.31,223.84 L 534.00,223.21 L 535.85,221.49 L 536.85,220.55 L 539.33,218.20 L 540.65,216.95 L 543.77,213.97 L 545.41,212.39 L 549.18,208.76 L 551.15,206.86 L 555.60,202.57 L 563.03,195.37 L 568.56,190.00 L 575.53,197.04 L 582.50,204.07 L 569.80,216.29 L 567.39,218.60 L 562.88,222.94 L 560.68,225.07 L 556.56,229.04 L 554.55,230.98 L 550.81,234.60 L 548.99,236.36 L 545.61,239.63 L 543.97,241.23 L 540.95,244.17 L 539.48,245.60 L 536.80,248.23 L 535.50,249.50 L 533.14,251.83 L 532.01,252.96 L 529.96,254.99 L 528.97,255.98 L 527.23,257.74 L 526.39,258.58 L 524.92,260.08 L 524.22,260.80 L 523.03,262.05 L 522.47,262.65 L 521.53,263.67 L 521.09,264.15 L 520.40,264.94 L 520.08,265.32 L 519.61,265.91 L 519.41,266.18 L 519.16,266.57 L 519.02,266.96 L 519.02,267.17 L 519.50,268.15 L 519.80,268.71 L 520.79,270.24 L 521.33,271.06 L 522.70,272.95 L 525.02,275.98 L 527.87,279.54 L 533.00,286.90 L 535.49,290.64 L 539.96,298.51 L 542.13,302.52 L 546.05,311.09 L 547.00,313.29 L 548.82,317.84 L 551.43,324.94 L 551.77,325.90 L 552.52,328.30 L 552.91,329.57 L 553.74,332.41 L 554.58,335.33 L 556.22,341.56 L 556.61,343.08 L 557.31,345.95 L 557.64,347.34 L 558.19,349.78 L 558.44,350.93 L 558.78,352.74 L 559.00,354.48 L 559.00,354.52 L 559.46,354.59 L 559.76,354.62 L 560.78,354.68 L 561.35,354.71 L 562.87,354.77 L 563.68,354.80 L 565.63,354.85 L 566.65,354.87 L 568.97,354.91 L 570.17,354.93 L 572.80,354.96 L 581.55,355.00 L 604.11,355.00 L 610.12,350.92 L 610.94,350.36 L 612.49,349.23 L 613.23,348.68 L 614.51,347.65 L 615.10,347.17 L 615.96,346.36 L 616.63,345.53 L 616.67,345.42 L 616.72,344.93 L 616.74,344.64 L 616.76,343.83 L 616.76,342.95 L 616.67,340.40 L 616.61,339.03 L 616.41,335.75 L 616.30,334.05 L 616.01,330.38 L 615.86,328.53 L 615.52,324.81 L 615.34,322.97 L 614.97,319.54 L 614.79,317.88 L 614.42,315.07 L 614.33,314.43 L 614.15,313.31 L 613.89,311.93 L 613.60,310.58 L 612.92,308.32 L 612.76,307.84 L 612.46,307.12 L 612.08,306.55 L 612.03,306.52 L 611.71,306.51 L 611.51,306.51 L 610.93,306.57 L 610.30,306.65 L 608.39,307.00 L 607.34,307.19 L 604.81,307.74 L 600.58,308.73 L 589.84,311.39 L 590.17,316.40 L 590.25,317.55 L 590.28,319.14 L 590.27,319.84 L 590.06,320.74 L 589.92,321.12 L 589.35,321.59 L 588.00,322.10 L 587.66,322.20 L 586.59,322.38 L 586.00,322.47 L 584.58,322.62 L 579.88,322.90 L 574.25,323.00 L 571.05,313.75 L 569.94,310.53 L 567.23,303.81 L 565.82,300.43 L 562.66,293.70 L 561.04,290.37 L 557.63,284.04 L 552.46,275.48 L 546.65,266.66 L 552.85,260.83 L 553.70,260.03 L 555.33,258.57 L 556.12,257.87 L 557.50,256.71 L 558.14,256.18 L 559.11,255.46 L 559.95,255.00 L 560.05,255.00 L 560.34,255.21 L 560.51,255.35 L 560.93,255.81 L 561.39,256.33 L 562.62,258.04 L 563.28,258.99 L 564.84,261.39 L 565.65,262.67 L 567.41,265.57 L 569.20,268.57 L 572.88,275.20 L 573.77,276.85 L 575.42,280.06 L 577.61,284.54 L 578.17,285.77 L 579.13,287.80 L 579.58,288.76 L 580.34,290.31 L 580.71,291.03 L 581.32,292.16 L 581.62,292.67 L 582.13,293.44 L 582.38,293.78 L 582.84,294.24 L 583.06,294.44 L 583.51,294.66 L 585.00,294.71 L 585.17,294.68 L 585.85,294.52 L 586.25,294.42 L 587.33,294.14 L 587.92,293.99 L 589.35,293.59 L 590.10,293.39 L 591.83,292.90 L 593.62,292.40 L 597.85,291.18 L 604.74,289.15 L 607.11,288.44 L 611.55,287.15 L 613.68,286.53 L 617.34,285.51 L 618.19,285.28 L 619.67,284.88 L 620.37,284.70 L 621.52,284.41 L 622.04,284.28 L 622.80,284.11 L 623.45,284.00 L 623.71,284.00 L 624.26,284.49 L 624.55,284.81 L 625.15,285.90 L 625.45,286.51 L 626.08,288.12 L 626.40,288.98 L 627.06,291.05 L 627.38,292.14 L 628.04,294.61 L 628.37,295.88 L 629.03,298.68 L 629.69,301.54 L 630.93,307.98 L 631.53,311.26 L 632.60,318.15 L 633.10,321.60 L 633.90,328.40 L 634.26,331.74 L 634.69,337.94 L 634.77,339.43 L 634.84,342.19 L 634.81,345.97 L 634.50,354.44 L 630.00,355.71 L 629.03,355.99 L 627.46,356.64 L 626.72,357.01 L 625.32,358.08 L 624.62,358.71 L 623.02,360.54 L 622.59,361.06 L 621.64,362.30 L 620.00,364.50 L 614.50,372.01 L 577.07,371.75 L 539.64,371.50 L 537.78,358.50 L 537.20,354.44 L 535.55,346.49 L 534.65,342.55 L 532.37,334.83 L 531.15,331.00 L 528.25,323.54 L 526.72,319.84 L 523.20,312.64 L 521.36,309.08 L 517.24,302.19 L 515.10,298.77 L 510.39,292.19 L 507.96,288.94 L 502.66,282.68 L 494.06,273.70 L 490.93,270.67 L 484.43,265.10 L 481.14,262.39 L 474.34,257.46 L 470.89,255.08 L 463.78,250.80 L 460.18,248.74 L 452.76,245.10 L 449.01,243.36 L 441.27,240.37 L 437.36,238.95 L 429.32,236.60 L 425.25,235.50 L 416.89,233.80 L 404.00,231.96 L 399.88,231.53 L 391.47,231.25 L 387.24,231.20 L 378.69,231.66 L 374.41,231.98 L 365.86,233.14 L 361.59,233.81 L 353.16,235.64 L 348.97,236.64 L 340.78,239.13 L 336.72,240.45 L 328.90,243.55 L 325.05,245.17 L 317.73,248.86 L 307.43,255.01 L 304.86,256.74 L 299.92,260.32 L 297.49,262.13 L 292.84,265.89 L 290.55,267.80 L 286.18,271.73 L 284.04,273.72 L 279.96,277.83 L 277.95,279.90 L 274.16,284.18 L 272.30,286.34 L 268.80,290.80 L 267.08,293.05 L 263.86,297.67 L 262.29,300.00 L 259.36,304.80 L 257.93,307.22 L 255.29,312.19 L 254.00,314.69 L 251.65,319.83 L 250.51,322.42 L 248.45,327.73 L 247.45,330.40 L 245.68,335.88 L 244.82,338.64 L 243.34,344.28 L 242.63,347.13 L 241.44,352.94 L 240.88,355.87 L 239.97,361.84 L 238.94,371.00 L 238.61,374.74 L 238.35,382.20 L 238.29,385.93 L 238.57,393.47 L 238.77,397.27 L 239.58,405.01 L 241.42,417.00 L 241.72,418.66 L 242.24,421.71 L 242.48,423.18 L 242.84,425.64 L 242.99,426.78 L 243.16,428.38 L 243.19,428.72 L 243.20,429.18 L 243.15,429.52 L 243.06,429.61 L 242.28,429.74 L 241.81,429.80 L 240.42,429.87 L 239.66,429.90 L 237.86,429.91 L 236.92,429.92 L 234.90,429.88 L 232.86,429.84 L 228.98,429.62 L 228.10,429.55 L 226.62,429.39 L 225.95,429.31 M 121.50,396.19 L 120.15,395.26 L 118.02,393.22 L 117.05,392.16 L 115.68,389.84 L 115.08,388.64 L 114.45,386.01 L 114.30,381.68 L 114.40,380.53 L 114.89,378.45 L 115.17,377.45 L 115.99,375.65 L 116.43,374.78 L 117.53,373.27 L 118.12,372.55 L 119.45,371.32 L 120.15,370.74 L 121.67,369.79 L 122.45,369.35 L 124.12,368.69 L 124.96,368.40 L 126.71,368.02 L 127.59,367.87 L 129.38,367.78 L 130.28,367.77 L 132.06,367.96 L 132.94,368.09 L 134.66,368.58 L 135.51,368.85 L 137.13,369.62 L 137.91,370.04 L 139.37,371.10 L 140.07,371.66 L 141.32,373.01 L 141.92,373.72 L 142.91,375.35 L 143.37,376.21 L 144.06,378.13 L 144.70,381.34 L 144.85,382.85 L 144.50,385.58 L 144.35,386.26 L 143.86,387.69 L 142.81,389.99 L 142.24,391.11 L 140.89,393.05 L 140.19,393.97 L 138.63,395.50 L 137.83,396.21 L 136.10,397.31 L 135.21,397.80 L 133.35,398.46 L 132.41,398.74 L 130.46,398.95 L 129.47,399.00 L 127.48,398.74 L 126.47,398.56 L 124.47,397.83 L 123.47,397.41 M 643.00,397.93 L 641.95,397.49 L 640.06,396.29 L 639.15,395.65 L 637.56,394.11 L 636.81,393.30 L 635.56,391.49 L 634.98,390.56 L 634.09,388.56 L 633.70,387.54 L 633.21,385.43 L 633.01,384.36 L 632.95,382.21 L 632.97,381.14 L 633.37,379.03 L 634.50,376.00 L 635.03,374.98 L 636.61,373.05 L 637.48,372.12 L 639.56,370.48 L 640.64,369.72 L 642.98,368.54 L 646.53,367.49 L 647.84,367.29 L 650.68,367.65 L 652.10,367.93 L 654.91,369.12 L 656.27,369.80 L 658.67,371.64 L 661.42,374.92 L 661.91,375.77 L 662.61,377.60 L 662.92,378.53 L 663.26,380.46 L 663.39,381.44 L 663.39,383.41 L 663.34,384.40 L 663.01,386.36 L 662.80,387.33 L 662.15,389.21 L 661.78,390.13 L 660.82,391.87 L 660.31,392.72 L 659.06,394.25 L 656.86,396.26 L 656.09,396.83 L 653.90,397.70 L 652.73,398.08 L 650.11,398.52 L 648.79,398.68 L 646.24,398.62 L 645.01,398.53 M 163.25,370.10 L 163.01,369.84 L 162.15,368.82 L 161.67,368.24 L 160.45,366.71 L 156.17,361.22 L 155.59,360.46 L 154.58,359.18 L 154.10,358.57 L 153.25,357.55 L 152.43,356.60 L 151.08,355.35 L 150.42,354.81 L 149.14,354.17 L 146.92,353.60 L 143.00,352.98 L 143.00,347.09 L 143.00,346.13 L 143.08,343.82 L 143.12,342.61 L 143.29,339.88 L 143.38,338.47 L 143.63,335.44 L 143.76,333.89 L 144.07,330.66 L 144.40,327.40 L 145.21,320.76 L 146.57,311.52 L 146.76,310.36 L 147.28,307.77 L 147.55,306.45 L 148.20,303.64 L 148.86,300.81 L 150.37,295.20 L 150.75,293.85 L 151.49,291.38 L 151.86,290.20 L 152.54,288.17 L 152.87,287.23 L 153.45,285.81 L 154.14,284.55 L 154.34,284.34 L 155.12,284.21 L 155.37,284.21 L 156.02,284.30 L 156.38,284.36 L 157.30,284.59 L 157.80,284.72 L 159.04,285.09 L 159.70,285.30 L 161.30,285.84 L 162.15,286.13 L 164.17,286.84 L 167.71,288.12 L 168.25,288.31 L 168.94,288.67 L 169.22,288.86 L 169.43,289.46 L 169.48,289.82 L 169.25,290.98 L 169.17,291.32 L 168.93,292.16 L 168.47,293.71 L 168.07,295.00 L 167.28,297.94 L 166.89,299.46 L 166.11,302.77 L 165.33,306.15 L 163.93,313.43 L 163.27,317.07 L 162.24,324.08 L 162.01,325.76 L 161.66,328.90 L 161.32,333.11 L 160.70,343.88 L 164.02,346.67 L 165.24,347.70 L 167.28,349.39 L 168.24,350.18 L 169.89,351.44 L 170.68,352.02 L 172.13,352.91 L 172.84,353.32 L 174.26,353.92 L 174.99,354.19 L 176.57,354.55 L 177.39,354.71 L 179.31,354.91 L 180.33,355.00 L 182.76,355.10 L 187.20,355.22 L 199.50,355.50 L 199.81,361.46 L 199.88,362.86 L 200.01,365.13 L 200.06,366.19 L 200.01,367.84 L 199.95,368.59 L 199.57,369.72 L 199.32,370.23 L 198.44,370.93 L 197.92,371.24 L 196.36,371.62 L 195.48,371.78 L 193.09,371.93 L 192.43,371.96 L 190.93,371.99 L 190.15,372.00 L 188.38,372.01 L 187.46,372.01 L 185.41,372.00 L 181.98,372.00 L 180.06,372.00 L 176.82,371.99 L 175.30,371.98 L 172.79,371.95 L 171.61,371.92 L 169.71,371.85 L 168.83,371.81 L 167.44,371.70 L 166.80,371.63 L 165.82,371.46 L 165.37,371.36 L 164.68,371.13 L 164.05,370.87 M 67.75,364.31 L 67.47,364.24 L 67.02,363.96 L 66.82,363.79 L 66.50,363.24 L 66.36,362.91 L 66.18,361.96 L 66.11,361.43 L 66.06,359.97 L 66.05,359.17 L 66.13,357.09 L 66.19,355.96 L 66.40,353.14 L 66.53,351.63 L 66.87,347.96 L 67.53,341.38 L 67.87,338.08 L 68.60,331.83 L 68.98,328.75 L 69.80,322.87 L 70.66,317.05 L 72.74,306.04 L 73.85,300.55 L 76.61,289.53 L 77.34,286.73 L 78.98,280.98 L 81.68,272.00 L 83.07,267.55 L 86.19,258.73 L 87.81,254.33 L 91.37,245.62 L 93.20,241.28 L 97.19,232.71 L 99.23,228.44 L 103.62,220.02 L 105.87,215.83 L 110.65,207.58 L 113.09,203.48 L 118.25,195.43 L 120.88,191.43 L 126.39,183.59 L 129.20,179.70 L 135.06,172.10 L 138.03,168.33 L 144.22,160.99 L 147.35,157.35 L 153.85,150.29 L 157.14,146.79 L 163.93,140.02 L 167.36,136.68 L 174.43,130.23 L 178.00,127.05 L 185.34,120.94 L 189.04,117.93 L 196.61,112.18 L 200.43,109.35 L 208.24,103.99 L 220.19,96.38 L 225.41,93.24 L 235.96,87.43 L 241.26,84.60 L 252.00,79.40 L 257.39,76.88 L 268.32,72.30 L 273.80,70.08 L 284.92,66.11 L 290.51,64.20 L 301.84,60.84 L 307.52,59.24 L 319.06,56.49 L 324.86,55.19 L 336.61,53.04 L 354.49,50.50 L 355.43,50.39 L 357.53,50.19 L 358.61,50.10 L 360.97,49.92 L 363.37,49.75 L 368.79,49.48 L 371.58,49.36 L 377.53,49.19 L 380.54,49.11 L 386.72,49.04 L 389.81,49.02 L 395.93,49.05 L 398.95,49.08 L 404.70,49.22 L 407.50,49.30 L 412.59,49.54 L 413.80,49.61 L 416.06,49.76 L 419.14,50.03 L 423.59,50.47 L 432.46,51.65 L 436.89,52.29 L 445.74,53.86 L 450.16,54.69 L 458.95,56.65 L 463.35,57.67 L 472.08,60.00 L 476.43,61.21 L 485.08,63.90 L 489.38,65.30 L 497.92,68.35 L 502.18,69.91 L 510.59,73.31 L 514.78,75.05 L 523.05,78.79 L 527.16,80.69 L 535.27,84.76 L 539.30,86.83 L 547.22,91.21 L 551.16,93.45 L 558.88,98.14 L 562.72,100.53 L 570.22,105.53 L 573.94,108.06 L 581.20,113.35 L 584.80,116.03 L 591.80,121.61 L 595.26,124.43 L 601.98,130.29 L 611.73,139.36 L 617.16,144.65 L 627.26,155.34 L 632.18,160.71 L 641.31,171.61 L 645.75,177.09 L 653.95,188.29 L 657.95,193.93 L 665.27,205.50 L 668.83,211.34 L 675.33,223.36 L 678.48,229.44 L 684.21,241.99 L 686.97,248.34 L 691.96,261.50 L 698.68,282.00 L 699.47,284.68 L 701.03,290.65 L 701.80,293.71 L 703.29,300.23 L 704.76,306.85 L 707.29,320.71 L 707.87,324.14 L 708.89,330.85 L 709.38,334.16 L 710.15,340.44 L 710.51,343.50 L 711.00,349.10 L 711.11,350.44 L 711.25,352.96 L 711.38,356.44 L 711.50,363.38 L 707.50,364.26 L 706.86,364.40 L 704.99,364.61 L 703.97,364.69 L 701.54,364.80 L 699.02,364.88 L 693.34,364.77 L 691.95,364.73 L 689.33,364.58 L 688.06,364.50 L 685.85,364.28 L 684.83,364.17 L 683.30,363.90 L 682.03,363.43 L 681.89,363.29 L 681.55,362.37 L 681.38,361.82 L 681.01,360.23 L 680.82,359.37 L 680.46,357.32 L 679.98,353.96 L 679.67,351.39 L 679.11,346.96 L 678.84,344.84 L 678.36,341.15 L 678.12,339.39 L 677.66,336.26 L 677.44,334.75 L 676.98,331.99 L 676.52,329.29 L 675.48,324.18 L 675.19,322.87 L 674.55,320.08 L 673.45,315.47 L 671.95,309.29 L 668.58,297.49 L 666.82,291.67 L 662.89,280.48 L 660.85,274.94 L 656.29,264.22 L 653.92,258.91 L 648.66,248.54 L 645.94,243.38 L 639.91,233.22 L 636.80,228.15 L 629.93,218.07 L 626.39,213.03 L 618.61,202.90 L 605.86,187.50 L 604.49,185.92 L 601.93,183.03 L 600.67,181.63 L 598.27,179.02 L 595.89,176.48 L 591.19,171.83 L 589.98,170.67 L 587.46,168.35 L 586.17,167.18 L 583.41,164.76 L 581.99,163.53 L 578.88,160.91 L 573.74,156.67 L 569.76,153.43 L 561.59,147.26 L 557.46,144.22 L 549.01,138.46 L 544.75,135.64 L 536.04,130.31 L 531.65,127.70 L 522.69,122.81 L 518.18,120.42 L 508.99,115.97 L 504.36,113.80 L 494.95,109.80 L 490.22,107.86 L 480.62,104.33 L 466.00,99.55 L 464.50,99.10 L 460.93,98.14 L 459.07,97.66 L 454.97,96.67 L 450.79,95.68 L 441.85,93.82 L 439.64,93.37 L 435.38,92.58 L 433.29,92.20 L 429.45,91.56 L 427.61,91.26 L 424.42,90.83 L 420.63,90.46 L 419.69,90.41 L 417.92,90.28 L 417.07,90.20 L 415.62,90.04 L 414.95,89.96 L 413.97,89.79 L 413.21,89.55 L 413.16,89.49 L 412.51,89.40 L 412.10,89.36 L 410.81,89.28 L 410.10,89.24 L 408.27,89.18 L 407.29,89.15 L 405.01,89.10 L 403.82,89.08 L 401.19,89.05 L 399.84,89.03 L 396.95,89.02 L 394.02,89.00 L 387.79,89.01 L 384.68,89.03 L 378.66,89.09 L 377.21,89.11 L 374.47,89.16 L 373.14,89.18 L 370.72,89.24 L 369.56,89.27 L 367.56,89.34 L 366.61,89.38 L 365.12,89.46 L 364.44,89.51 L 363.55,89.60 L 362.99,89.75 L 362.99,89.85 L 362.49,90.05 L 362.18,90.15 L 361.15,90.33 L 360.58,90.41 L 359.16,90.55 L 356.74,90.67 L 355.65,90.70 L 353.27,90.86 L 352.05,90.96 L 349.43,91.24 L 346.76,91.56 L 340.80,92.55 L 337.73,93.10 L 331.13,94.51 L 327.76,95.27 L 320.71,97.06 L 317.15,97.99 L 309.85,100.10 L 306.19,101.20 L 298.83,103.58 L 295.16,104.80 L 287.95,107.40 L 277.50,111.49 L 273.62,113.10 L 265.61,116.85 L 261.58,118.80 L 253.37,123.16 L 249.26,125.41 L 241.02,130.28 L 236.91,132.77 L 228.78,138.04 L 224.75,140.72 L 216.90,146.29 L 213.03,149.11 L 205.62,154.87 L 201.98,157.77 L 195.17,163.62 L 185.79,172.38 L 180.91,177.23 L 171.76,187.17 L 167.28,192.17 L 158.94,202.42 L 154.86,207.59 L 147.31,218.17 L 143.63,223.51 L 136.86,234.44 L 133.57,239.95 L 127.58,251.24 L 124.68,256.94 L 119.45,268.61 L 116.93,274.49 L 112.46,286.55 L 106.60,305.11 L 106.28,306.25 L 105.58,308.98 L 105.22,310.40 L 104.48,313.54 L 103.73,316.73 L 102.31,323.36 L 101.98,324.97 L 101.39,327.96 L 101.11,329.40 L 100.67,331.89 L 100.47,333.06 L 100.22,334.84 L 100.17,335.22 L 100.11,335.83 L 100.10,336.45 L 100.16,337.01 L 100.02,338.41 L 99.54,340.25 L 99.44,340.50 L 99.28,341.21 L 99.21,341.60 L 99.12,342.52 L 99.19,345.50 L 99.30,346.47 L 99.27,347.97 L 99.24,348.29 L 99.14,348.72 L 98.89,349.00 L 98.80,349.00 L 98.55,349.57 L 98.43,349.93 L 98.15,351.12 L 98.01,351.77 L 97.73,353.41 L 97.34,356.21 L 97.25,357.02 L 97.07,358.39 L 96.99,359.04 L 96.82,360.10 L 96.64,361.10 L 96.23,362.37 L 96.00,362.91 L 95.37,363.53 L 94.00,364.11 L 93.65,364.20 L 92.19,364.37 L 91.36,364.44 L 89.12,364.56 L 87.93,364.62 L 85.21,364.70 L 83.81,364.73 L 80.88,364.77 L 79.41,364.78 L 76.54,364.77 L 75.15,364.75 L 72.63,364.69 L 71.44,364.65 L 69.56,364.54 L 68.72,364.48 M 192.00,333.65 L 190.79,333.40 L 189.09,332.96 L 188.34,332.74 L 187.38,332.25 L 186.98,331.99 L 186.54,331.30 L 186.20,329.88 L 186.11,329.11 L 186.27,326.90 L 186.40,325.69 L 186.98,322.73 L 187.32,321.17 L 188.26,317.61 L 188.77,315.76 L 190.02,311.75 L 190.69,309.70 L 192.21,305.39 L 193.00,303.20 L 194.74,298.74 L 200.55,285.50 L 201.22,284.10 L 202.84,280.97 L 203.67,279.38 L 205.52,276.01 L 207.39,272.63 L 211.28,266.05 L 212.22,264.49 L 213.98,261.70 L 214.82,260.37 L 216.29,258.19 L 216.97,257.20 L 218.02,255.85 L 218.25,255.58 L 218.61,255.22 L 218.98,255.00 L 219.08,255.00 L 219.76,255.45 L 220.16,255.75 L 221.32,256.69 L 221.95,257.21 L 223.45,258.52 L 225.91,260.75 L 232.10,266.50 L 227.72,273.00 L 226.53,274.77 L 224.12,278.69 L 222.92,280.71 L 220.54,285.02 L 218.18,289.41 L 213.76,298.86 L 211.64,303.61 L 208.01,313.07 L 207.17,315.40 L 205.72,319.88 L 203.93,326.25 L 203.63,327.48 L 203.13,329.47 L 202.89,330.40 L 202.44,331.85 L 202.22,332.51 L 201.72,333.46 L 201.46,333.89 L 200.80,334.42 L 200.44,334.64 L 199.53,334.82 L 199.03,334.87 L 197.74,334.76 L 197.04,334.68 L 195.29,334.34 L 194.34,334.15 M 177.93,266.46 L 176.72,266.05 L 174.06,264.93 L 172.73,264.34 L 170.20,263.08 L 169.00,262.46 L 167.10,261.31 L 166.69,261.05 L 166.07,260.59 L 165.52,260.03 L 165.43,259.88 L 165.43,259.36 L 165.47,259.06 L 165.74,258.22 L 165.91,257.76 L 166.47,256.57 L 166.78,255.94 L 167.63,254.38 L 168.09,253.56 L 169.25,251.62 L 169.87,250.60 L 171.35,248.24 L 172.13,247.00 L 173.95,244.20 L 177.06,239.48 L 178.17,237.81 L 180.01,235.07 L 180.88,233.80 L 182.30,231.80 L 182.96,230.88 L 184.06,229.55 L 184.58,228.96 L 185.47,228.22 L 185.90,227.92 L 186.69,227.69 L 187.08,227.64 L 187.86,227.85 L 188.27,228.01 L 189.16,228.59 L 190.73,229.80 L 191.76,230.62 L 194.09,232.67 L 194.65,233.18 L 195.66,234.13 L 196.89,235.36 L 199.28,237.93 L 195.19,244.21 L 194.63,245.08 L 193.22,247.33 L 192.49,248.52 L 190.88,251.18 L 190.08,252.53 L 188.47,255.26 L 186.28,259.09 L 181.47,267.69 L 177.93,266.46 M 594.05,261.74 L 593.58,260.89 L 592.31,258.69 L 591.63,257.54 L 590.08,254.99 L 589.29,253.70 L 587.66,251.10 L 585.32,247.51 L 584.59,246.41 L 583.25,244.31 L 582.62,243.30 L 581.56,241.52 L 581.08,240.69 L 580.42,239.43 L 580.00,238.34 L 580.00,238.18 L 580.45,237.48 L 580.74,237.08 L 581.67,236.02 L 582.18,235.46 L 583.47,234.16 L 585.67,232.10 L 586.76,231.13 L 588.47,229.72 L 589.25,229.11 L 590.43,228.35 L 590.97,228.04 L 591.76,227.86 L 592.67,228.14 L 592.90,228.33 L 593.49,228.96 L 593.81,229.31 L 594.57,230.24 L 594.97,230.74 L 595.87,231.93 L 596.34,232.55 L 597.35,233.95 L 598.39,235.40 L 600.67,238.74 L 601.83,240.45 L 604.17,244.04 L 605.33,245.84 L 607.51,249.33 L 608.55,251.03 L 610.33,254.06 L 610.73,254.77 L 611.43,256.04 L 611.76,256.65 L 612.27,257.68 L 612.51,258.16 L 612.81,258.91 L 613.00,259.65 L 613.00,259.83 L 612.55,260.39 L 612.25,260.70 L 611.31,261.43 L 610.79,261.81 L 609.48,262.63 L 607.25,263.86 L 606.03,264.46 L 604.05,265.45 L 603.12,265.91 L 601.63,266.57 L 600.93,266.86 L 599.81,267.19 L 599.29,267.31 L 598.45,267.27 L 598.04,267.21 L 597.35,266.79 L 597.01,266.54 L 596.37,265.73 L 596.04,265.28 L 595.32,264.06 L 594.94,263.40 M 222.63,229.82 L 220.80,228.09 L 217.28,224.75 L 215.55,223.11 L 212.29,220.00 L 210.70,218.48 L 207.77,215.67 L 206.35,214.31 L 203.82,211.86 L 202.62,210.70 L 200.56,208.69 L 199.60,207.76 L 198.10,206.26 L 197.43,205.59 L 196.54,204.68 L 196.00,204.05 L 196.00,203.96 L 196.54,203.27 L 196.89,202.86 L 198.02,201.62 L 198.65,200.94 L 200.21,199.31 L 202.89,196.61 L 209.77,189.78 L 228.33,207.89 L 230.89,210.38 L 235.61,214.92 L 236.74,216.00 L 238.84,218.00 L 239.86,218.96 L 241.70,220.68 L 242.58,221.50 L 244.10,222.90 L 244.81,223.55 L 245.96,224.57 L 246.48,225.03 L 247.21,225.63 L 247.76,226.00 L 247.88,226.00 L 248.33,225.76 L 248.58,225.60 L 249.23,225.10 L 251.56,222.92 L 251.97,222.50 L 253.22,221.30 L 253.90,220.67 L 255.55,219.18 L 261.00,214.52 L 263.61,212.38 L 268.98,208.36 L 271.68,206.39 L 277.26,202.70 L 280.07,200.90 L 285.88,197.52 L 288.82,195.87 L 294.90,192.80 L 297.98,191.29 L 304.35,188.50 L 307.58,187.14 L 314.28,184.63 L 317.68,183.40 L 324.73,181.14 L 335.75,178.03 L 340.00,176.92 L 340.00,164.33 L 340.00,151.74 L 335.75,152.41 L 334.78,152.57 L 332.42,153.06 L 331.18,153.34 L 328.37,154.05 L 326.92,154.43 L 323.77,155.32 L 322.17,155.78 L 318.79,156.82 L 315.38,157.89 L 308.34,160.33 L 298.36,164.13 L 294.87,165.57 L 288.19,168.64 L 284.90,170.21 L 278.54,173.59 L 275.39,175.32 L 269.25,179.06 L 260.17,185.15 L 258.74,186.17 L 256.34,187.76 L 255.22,188.48 L 253.40,189.50 L 252.57,189.94 L 251.30,190.40 L 249.97,190.49 L 249.63,190.38 L 248.75,189.80 L 248.29,189.46 L 247.23,188.50 L 246.15,187.47 L 243.90,184.83 L 243.36,184.17 L 242.39,182.85 L 241.93,182.20 L 241.19,181.01 L 240.86,180.45 L 240.46,179.52 L 240.34,178.56 L 240.40,178.40 L 240.79,177.93 L 241.02,177.68 L 241.72,177.04 L 242.11,176.71 L 243.10,175.93 L 243.63,175.52 L 244.88,174.61 L 246.18,173.67 L 249.42,171.48 L 251.12,170.35 L 254.96,167.92 L 258.90,165.44 L 267.52,160.41 L 269.65,159.19 L 273.77,156.94 L 279.50,154.00 L 283.29,152.15 L 290.71,148.84 L 294.40,147.24 L 301.73,144.42 L 305.39,143.06 L 312.74,140.67 L 323.92,137.54 L 326.48,136.89 L 332.39,135.58 L 335.37,134.94 L 341.29,133.80 L 342.72,133.54 L 345.39,133.08 L 346.68,132.86 L 348.97,132.51 L 350.06,132.35 L 351.83,132.14 L 353.75,132.00 L 356.00,132.00 L 356.00,161.86 L 356.00,191.72 L 345.05,193.90 L 342.25,194.46 L 336.76,195.76 L 334.04,196.43 L 328.69,197.98 L 326.04,198.78 L 320.82,200.57 L 318.23,201.50 L 313.13,203.55 L 310.59,204.60 L 305.59,206.91 L 303.10,208.10 L 298.19,210.68 L 295.74,212.00 L 290.90,214.85 L 283.71,219.44 L 282.17,220.48 L 278.89,222.79 L 277.24,223.97 L 274.04,226.35 L 272.48,227.52 L 269.72,229.68 L 269.08,230.19 L 267.95,231.13 L 266.52,232.37 L 265.79,233.02 L 264.60,234.10 L 264.05,234.61 L 263.17,235.46 L 262.77,235.85 L 262.17,236.52 L 261.90,236.83 L 261.54,237.37 L 261.25,237.88 L 261.25,238.77 L 261.91,240.33 L 262.24,240.94 L 262.56,241.90 L 262.65,242.37 L 262.34,243.40 L 262.21,243.68 L 261.80,244.34 L 261.57,244.69 L 260.94,245.52 L 260.59,245.96 L 259.70,247.03 L 258.04,248.95 L 257.32,249.78 L 255.87,251.30 L 255.15,252.02 L 253.82,253.22 L 253.19,253.77 L 252.13,254.52 L 251.03,255.00 L 250.91,255.00 L 250.13,254.49 L 249.66,254.15 L 248.24,253.01 L 247.46,252.37 L 245.48,250.68 L 244.42,249.78 L 241.96,247.60 L 240.67,246.46 L 237.79,243.87 L 236.31,242.53 L 233.11,239.60 L 231.47,238.09 L 228.01,234.88 L 226.26,233.24 M 457.50,200.86 L 456.76,200.56 L 454.94,199.90 L 453.99,199.56 L 451.81,198.84 L 449.56,198.11 L 444.44,196.61 L 441.85,195.88 L 436.67,194.54 L 435.41,194.23 L 433.02,193.67 L 429.75,192.98 L 424.00,191.86 L 424.00,162.49 L 424.00,160.47 L 424.02,156.58 L 424.03,154.66 L 424.07,151.04 L 424.09,149.27 L 424.15,146.01 L 424.18,144.42 L 424.25,141.59 L 424.29,140.23 L 424.38,137.92 L 424.43,136.83 L 424.53,135.11 L 424.58,134.33 L 424.69,133.29 L 424.86,132.59 L 425.00,132.50 L 425.89,132.47 L 426.42,132.48 L 428.00,132.62 L 428.86,132.71 L 431.00,132.99 L 432.12,133.14 L 434.67,133.55 L 437.30,133.98 L 443.22,135.10 L 452.00,137.02 L 453.39,137.35 L 456.63,138.21 L 458.31,138.66 L 461.94,139.70 L 465.63,140.77 L 473.13,143.12 L 474.94,143.70 L 478.28,144.81 L 479.88,145.35 L 482.64,146.33 L 483.92,146.80 L 485.85,147.57 L 486.27,147.75 L 486.91,148.05 L 487.55,148.41 L 487.75,148.56 L 488.02,148.92 L 488.13,149.14 L 488.20,149.75 L 488.20,150.10 L 488.01,151.10 L 487.88,151.67 L 487.39,153.21 L 487.10,154.06 L 486.25,156.29 L 485.78,157.51 L 484.53,160.57 L 484.19,161.39 L 483.42,163.22 L 483.02,164.17 L 482.14,166.26 L 481.68,167.34 L 480.67,169.70 L 479.01,173.58 L 478.22,175.41 L 476.80,178.72 L 476.11,180.33 L 474.87,183.23 L 474.26,184.62 L 473.18,187.13 L 472.65,188.34 L 471.72,190.49 L 471.27,191.52 L 470.46,193.34 L 470.08,194.20 L 469.39,195.71 L 469.07,196.43 L 468.49,197.67 L 468.21,198.25 L 467.72,199.23 L 467.26,200.16 L 466.54,201.38 L 466.21,201.90 L 465.68,202.49 L 465.42,202.72 L 464.96,202.90 L 464.22,202.95 L 463.99,202.94 L 463.16,202.76 L 462.70,202.65 L 461.54,202.31 L 460.32,201.93 M 462.74,171.01 L 463.28,169.70 L 464.17,167.56 L 464.58,166.56 L 465.22,164.95 L 465.51,164.20 L 465.92,163.02 L 466.10,162.48 L 466.30,161.65 L 466.37,161.26 L 466.38,160.68 L 466.36,160.42 L 466.19,159.99 L 465.10,158.88 L 464.87,158.69 L 463.86,158.21 L 463.29,157.96 L 461.71,157.39 L 460.86,157.09 L 458.87,156.47 L 457.84,156.15 L 455.60,155.52 L 453.33,154.89 L 448.72,153.80 L 447.62,153.56 L 445.59,153.17 L 443.00,152.78 L 440.50,152.50 L 440.22,165.20 L 439.94,177.91 L 443.72,178.89 L 444.76,179.16 L 447.42,179.88 L 451.00,180.87 L 451.82,181.10 L 453.19,181.44 L 453.84,181.58 L 454.94,181.70 L 455.46,181.73 L 456.35,181.55 L 456.78,181.42 L 457.56,180.88 L 457.94,180.56 L 458.68,179.60 L 459.05,179.05 L 459.83,177.59 L 460.24,176.79 L 461.15,174.76 L 461.62,173.67 M 379.67,194.33 L 379.62,194.29 L 379.53,193.91 L 379.49,193.67 L 379.41,192.94 L 379.37,192.54 L 379.29,191.50 L 379.26,190.95 L 379.20,189.65 L 379.14,188.29 L 379.05,184.95 L 379.00,179.33 L 379.00,165.00 L 389.38,165.00 L 399.77,165.00 L 400.47,170.61 L 400.57,171.38 L 400.69,173.53 L 400.73,174.67 L 400.76,177.33 L 400.47,185.61 L 399.76,195.00 L 390.05,195.00 L 388.71,195.00 L 386.22,194.95 L 385.03,194.91 L 382.99,194.80 L 382.05,194.74 L 380.69,194.59 L 380.12,194.51 M 519.74,189.57 L 518.12,188.99 L 515.48,187.47 L 514.27,186.65 L 512.44,184.63 L 511.63,183.57 L 510.61,181.08 L 510.00,176.80 L 510.00,175.98 L 510.32,174.33 L 510.52,173.51 L 511.20,171.89 L 511.58,171.09 L 512.55,169.57 L 513.07,168.82 L 514.29,167.46 L 514.93,166.80 L 516.33,165.65 L 517.04,165.11 L 518.56,164.24 L 519.33,163.85 L 520.91,163.33 L 523.29,163.00 L 524.45,163.00 L 526.94,163.64 L 528.18,164.05 L 530.57,165.33 L 531.72,166.04 L 533.63,167.74 L 535.58,170.53 L 535.99,171.51 L 536.55,173.46 L 536.78,174.43 L 537.00,176.31 L 537.06,177.25 L 536.95,179.04 L 536.85,179.92 L 536.41,181.59 L 536.15,182.41 L 535.40,183.92 L 534.98,184.65 L 533.93,185.97 L 533.36,186.60 L 532.02,187.70 L 529.68,189.06 L 529.07,189.34 L 528.04,189.79 L 527.55,190.00 L 526.73,190.33 L 525.95,190.61 L 524.68,190.80 L 524.05,190.84 L 522.65,190.54 L 522.26,190.43 L 521.36,190.14 L 520.88,189.98 M 383.21,138.33 L 382.35,137.91 L 380.80,136.86 L 380.06,136.31 L 378.73,135.02 L 378.10,134.36 L 377.02,132.88 L 376.52,132.12 L 375.71,130.49 L 375.34,129.66 L 374.81,127.93 L 374.59,127.05 L 374.36,125.26 L 374.29,124.35 L 374.39,122.54 L 374.93,119.83 L 375.25,118.76 L 376.11,116.87 L 376.58,115.96 L 377.69,114.37 L 378.28,113.62 L 379.61,112.34 L 380.29,111.75 L 381.79,110.77 L 382.55,110.32 L 384.17,109.65 L 384.99,109.35 L 386.69,108.96 L 387.55,108.80 L 389.28,108.70 L 390.15,108.69 L 391.88,108.86 L 392.74,108.98 L 394.42,109.43 L 395.25,109.69 L 396.83,110.40 L 397.60,110.79 L 399.05,111.76 L 399.75,112.28 L 401.01,113.50 L 401.62,114.15 L 402.66,115.62 L 403.14,116.38 L 403.91,118.10 L 404.26,118.98 L 404.71,120.93 L 405.00,124.10 L 405.00,125.52 L 404.47,128.16 L 404.12,129.44 L 402.98,131.78 L 402.35,132.90 L 400.71,134.86 L 399.84,135.78 L 397.81,137.28 L 396.75,137.97 L 394.44,138.95 L 393.26,139.37 L 390.78,139.75 L 389.53,139.86 L 386.98,139.58 L 385.71,139.35 Z" fill="rgba(254,254,254,1)"/>
</g>
</svg>